<?xml version="1.0" standalone="no"?>
<!DOCTYPE svg PUBLIC "-//W3C//DTD SVG 20010904//EN"
 "http://www.w3.org/TR/2001/REC-SVG-20010904/DTD/svg10.dtd">
<svg version="1.0" xmlns="http://www.w3.org/2000/svg"
 width="240.000000pt" height="240.000000pt" viewBox="0 0 240.000000 240.000000"
 preserveAspectRatio="xMidYMid meet">
<metadata>
Created by potrace 1.11, written by Peter Selinger 2001-2013
</metadata>
<g transform="translate(0.000000,240.000000) scale(0.100000,-0.100000)"
fill="#000000" stroke="none">
<path d="M755 2163 c-43 -11 -124 -53 -146 -76 -67 -68 -121 -141 -183 -246
-88 -149 -143 -309 -185 -537 -36 -201 -40 -236 -23 -242 6 -2 12 -20 12 -40
0 -20 28 -120 62 -222 l61 -185 178 -139 c98 -77 184 -143 191 -147 26 -14
435 -91 484 -91 52 0 457 77 483 92 8 4 94 70 191 146 l177 139 61 186 c34
102 62 202 62 222 0 20 5 37 10 37 17 0 11 68 -20 240 -34 187 -103 404 -153
484 -18 28 -44 73 -57 99 -26 51 -135 187 -173 217 -56 44 -196 86 -210 63 -3
-5 -7 -226 -8 -491 l-2 -481 -52 -26 c-29 -14 -55 -25 -58 -25 -4 0 -7 16 -7
35 0 19 -4 35 -9 35 -4 0 -9 37 -11 83 -9 338 -14 385 -46 456 -13 29 -24 59
-24 67 0 22 -18 26 -113 26 -191 0 -197 0 -197 -20 0 -10 -9 -38 -21 -61 -35
-73 -41 -132 -50 -483 -1 -38 -5 -68 -10 -68 -5 0 -9 -16 -9 -35 0 -19 -3 -35
-7 -35 -3 0 -29 11 -58 25 l-51 25 -3 418 c-1 229 -3 449 -4 487 l-2 70 -30 2
c-16 0 -39 -1 -50 -4z"/>
</g>
</svg>
