<?xml version="1.0" standalone="no"?>
<!DOCTYPE svg PUBLIC "-//W3C//DTD SVG 20010904//EN"
 "http://www.w3.org/TR/2001/REC-SVG-20010904/DTD/svg10.dtd">
<svg version="1.0" xmlns="http://www.w3.org/2000/svg"
 width="1349.000000pt" height="1349.000000pt" viewBox="0 0 1349.000000 1349.000000"
 preserveAspectRatio="xMidYMid meet">
<metadata>
Created by potrace 1.11, written by Peter Selinger 2001-2013
</metadata>
<g transform="translate(0.000000,1349.000000) scale(0.100000,-0.100000)"
fill="#000000" stroke="none">
<path d="M6729 13478 c-1 -7 -2 -24 -4 -38 -1 -14 -5 -59 -9 -100 -7 -88 -17
-195 -21 -230 -2 -14 -3 -40 -4 -57 -1 -37 -21 -46 -22 -10 -1 50 -19 -22 -50
-208 -17 -104 -33 -199 -35 -210 -6 -31 -104 -606 -109 -640 -3 -16 -7 -41
-10 -55 -3 -14 -8 -41 -11 -60 -3 -19 -7 -42 -9 -50 -2 -8 -7 -37 -11 -65 -3
-27 -8 -59 -10 -70 -4 -18 -9 -98 -19 -276 -6 -118 -38 -145 -190 -164 -334
-42 -807 -167 -1085 -288 -19 -8 -64 -27 -100 -43 -57 -24 -143 -65 -312 -150
-84 -42 -301 -175 -423 -260 -245 -170 -441 -338 -680 -582 -140 -144 -188
-174 -278 -174 -55 0 -64 3 -140 55 -108 73 -91 66 -342 141 -199 59 -428 140
-945 332 -96 36 -224 83 -285 105 -60 22 -119 44 -130 49 -55 23 -674 230
-688 230 -8 0 7 -13 122 -109 24 -20 103 -85 175 -146 73 -60 151 -126 175
-145 24 -19 48 -40 55 -45 10 -10 174 -147 206 -172 33 -27 167 -137 190 -157
160 -136 854 -707 915 -753 70 -53 176 -143 191 -163 29 -39 24 -119 -15 -210
-18 -41 -71 -169 -117 -285 -47 -115 -89 -219 -93 -230 -5 -11 -19 -47 -31
-80 -12 -33 -26 -69 -31 -80 -18 -40 -101 -272 -120 -335 -23 -78 -31 -118
-43 -225 -18 -156 -21 -187 -31 -320 -3 -49 -8 -115 -11 -145 -6 -77 -6 -489
0 -585 6 -75 12 -151 22 -255 17 -174 62 -449 109 -660 41 -185 138 -524 175
-615 38 -91 97 -181 150 -231 71 -66 87 -122 52 -176 -9 -14 -74 -70 -142
-124 -69 -54 -127 -101 -130 -104 -3 -3 -45 -39 -95 -80 -91 -76 -139 -117
-159 -135 -6 -6 -121 -105 -256 -220 -494 -424 -732 -602 -1075 -805 -166 -98
-259 -160 -251 -167 6 -7 76 16 546 179 834 289 1006 349 1025 358 11 5 36 14
55 19 19 5 91 30 160 54 777 277 799 284 853 256 12 -6 95 -84 183 -173 192
-192 269 -262 389 -358 169 -134 242 -186 470 -334 127 -82 371 -207 572 -293
284 -121 717 -248 979 -286 22 -4 46 -8 54 -10 8 -2 38 -7 65 -10 71 -8 146
-26 175 -40 58 -30 101 -98 115 -180 7 -48 44 -288 50 -330 8 -61 35 -251 41
-285 2 -19 7 -51 10 -70 2 -19 6 -44 9 -55 2 -11 7 -47 10 -80 4 -33 8 -67 10
-75 5 -16 22 -134 31 -206 3 -23 7 -53 9 -65 3 -13 7 -44 11 -69 3 -25 9 -70
14 -100 6 -30 12 -73 15 -95 2 -22 7 -51 10 -65 2 -14 7 -47 10 -75 3 -27 7
-61 10 -75 11 -57 15 -88 21 -145 3 -33 8 -62 9 -65 2 -3 7 -32 10 -64 4 -33
15 -82 25 -110 15 -45 18 -48 27 -31 10 18 38 163 72 365 6 36 13 76 15 90 6
34 24 140 29 170 3 14 8 45 12 70 4 25 9 54 11 65 6 27 94 542 100 580 2 17 6
41 9 55 4 24 10 55 21 125 2 17 6 41 9 55 3 14 7 41 10 60 3 19 10 60 15 90 5
30 12 71 15 90 3 19 10 60 15 90 15 85 19 112 25 155 11 75 34 141 57 162 36
34 55 39 248 69 240 36 580 123 805 205 238 88 540 225 663 302 23 15 44 27
46 27 9 0 201 122 291 185 254 177 418 317 676 577 197 198 187 195 399 120
63 -22 252 -88 420 -147 168 -58 393 -137 500 -175 107 -38 263 -92 345 -120
83 -28 251 -87 375 -130 124 -43 245 -85 270 -94 25 -8 135 -46 245 -84 110
-39 227 -79 260 -91 l60 -20 -40 35 c-22 20 -93 71 -157 115 -94 64 -271 201
-412 320 -32 26 -206 169 -256 210 -25 20 -55 45 -67 55 -12 11 -30 26 -40 34
-30 24 -186 153 -208 171 -11 10 -92 77 -180 149 -184 152 -175 145 -469 390
-295 247 -301 260 -216 445 61 130 84 184 133 311 64 164 136 389 181 569 25
99 83 396 91 465 2 19 6 62 10 95 3 33 8 74 11 90 25 176 25 735 -1 955 -3 19
-7 60 -10 90 -4 30 -8 64 -10 75 -3 11 -7 38 -9 60 -22 203 -120 636 -198 870
-32 96 -142 381 -212 550 -28 67 -39 96 -35 99 2 2 180 148 394 326 215 177
410 339 435 360 25 21 133 111 240 199 107 89 204 170 215 179 11 10 58 49
105 87 100 82 384 317 420 348 14 12 50 42 80 67 138 113 158 132 135 124 -11
-4 -109 -52 -218 -106 -230 -114 -385 -188 -394 -188 -4 0 -36 -12 -72 -26
-78 -31 -205 -78 -281 -103 -30 -11 -68 -24 -85 -31 -16 -7 -39 -16 -50 -20
-18 -7 -353 -123 -810 -280 -82 -29 -247 -85 -365 -127 -118 -41 -238 -77
-267 -80 -74 -8 -117 20 -153 101 -22 48 -51 83 -137 166 -384 371 -749 634
-1158 837 -306 152 -557 234 -870 286 -46 8 -413 75 -475 88 -71 13 -85 16
-141 24 -26 4 -51 10 -56 14 -5 3 -15 42 -22 86 -16 99 -27 162 -40 240 -6 33
-13 77 -17 99 -3 21 -8 48 -10 60 -5 24 -7 36 -29 171 -9 55 -18 111 -21 125
-7 44 -36 214 -39 235 -2 11 -22 130 -45 265 -23 135 -43 256 -45 270 -2 14
-8 52 -14 85 -6 33 -17 103 -26 155 -9 52 -18 109 -21 125 -22 122 -46 263
-47 279 -2 22 -26 34 -28 14z m826 -2813 c336 -93 585 -174 735 -237 289 -122
584 -303 868 -531 74 -60 164 -128 201 -151 80 -52 114 -83 135 -125 19 -37
19 -38 -5 -72 -16 -23 -92 -64 -138 -74 -9 -2 -54 -18 -101 -35 -47 -17 -98
-36 -115 -41 -16 -5 -39 -13 -50 -18 -11 -5 -69 -26 -130 -47 -60 -20 -146
-50 -190 -65 -533 -185 -527 -184 -589 -160 -25 10 -101 63 -116 82 -12 14
-124 80 -182 108 -35 16 -115 46 -178 66 -246 80 -290 132 -315 380 -3 33 -8
72 -10 86 -3 14 -7 42 -9 62 -3 20 -7 52 -10 69 -3 18 -8 51 -11 73 -3 22 -13
78 -21 125 -21 111 -20 108 -29 160 -5 25 -9 52 -10 60 -1 8 -12 67 -23 130
-12 63 -23 126 -25 140 -3 14 -8 44 -12 68 -5 33 -4 41 7 38 7 -3 153 -44 323
-91z m-1350 31 c23 -23 27 -37 28 -101 1 -18 -18 -145 -29 -200 -3 -11 -7 -36
-10 -55 -2 -19 -9 -57 -14 -85 -15 -78 -30 -171 -45 -265 -2 -14 -14 -83 -26
-155 -19 -110 -20 -138 -11 -184 10 -48 9 -59 -10 -105 -21 -50 -50 -99 -75
-124 -26 -26 -467 -227 -663 -301 -83 -32 -136 -28 -217 16 -127 68 -158 81
-273 118 -411 130 -805 279 -852 322 -35 31 -19 85 43 143 50 48 162 145 183
160 12 8 26 19 31 25 6 7 53 43 105 82 458 338 936 557 1475 674 50 11 123 27
164 37 121 28 166 28 196 -2z m-246 -1970 c6 -7 14 -33 17 -57 3 -24 6 -460 8
-969 2 -808 4 -929 18 -960 21 -48 41 -63 133 -100 44 -17 84 -35 90 -41 13
-13 22 -11 22 4 1 28 14 236 18 287 2 30 7 93 10 140 16 274 20 338 30 465 3
39 7 104 10 145 3 41 10 91 16 110 21 68 72 205 95 256 l23 50 283 0 c156 -1
289 -5 296 -9 7 -5 28 -41 46 -80 86 -182 108 -315 121 -712 6 -174 9 -232 19
-320 3 -27 8 -86 12 -130 3 -44 8 -88 10 -98 2 -10 4 -38 5 -63 2 -24 4 -44 6
-44 10 0 181 74 206 88 15 9 31 30 35 47 5 16 10 404 11 860 4 1135 3 1114 27
1132 13 10 35 13 74 9 184 -18 322 -98 496 -289 49 -54 209 -292 281 -417 92
-160 195 -394 234 -531 7 -24 14 -48 15 -54 39 -130 118 -513 148 -714 26
-171 26 -273 1 -366 -36 -134 -158 -524 -185 -590 -5 -11 -22 -60 -40 -110
-52 -149 -23 -120 -534 -525 -120 -95 -237 -183 -260 -196 -59 -32 -135 -52
-266 -70 -19 -2 -42 -6 -50 -9 -8 -2 -31 -7 -50 -10 -19 -3 -64 -12 -100 -20
-36 -8 -76 -17 -90 -19 -14 -3 -36 -7 -50 -11 -14 -3 -54 -10 -90 -16 -111
-17 -125 -20 -140 -24 -21 -6 -148 -18 -190 -18 -67 -1 -147 11 -450 68 -14 2
-45 9 -70 15 -25 5 -57 12 -72 15 -16 3 -38 7 -50 10 -13 2 -63 11 -113 19
-183 29 -289 82 -455 226 -98 86 -209 172 -309 240 -107 73 -196 165 -245 252
-32 59 -79 182 -90 238 -2 14 -10 48 -16 75 -6 28 -14 59 -16 70 -3 11 -7 31
-10 45 -7 37 -17 69 -74 240 -28 85 -57 176 -65 203 -18 65 -12 202 15 312 12
50 23 99 26 110 2 11 6 31 9 45 3 14 7 43 11 65 7 50 50 247 66 300 6 22 12
42 13 45 3 12 59 190 85 271 86 262 218 502 423 769 116 150 185 216 289 273
43 24 166 70 213 80 45 10 103 6 114 -7z m4331 -301 c205 -414 306 -737 345
-1095 8 -79 17 -184 21 -250 4 -92 4 -468 -1 -530 -2 -25 -6 -90 -10 -145 -3
-55 -8 -113 -10 -130 -2 -16 -7 -59 -10 -95 -3 -36 -8 -80 -11 -97 -6 -46 -11
-85 -24 -183 -25 -187 -88 -435 -162 -635 -80 -216 -141 -326 -187 -338 -31
-8 -92 27 -162 95 -114 109 -240 217 -509 437 -149 121 -222 186 -242 214 -35
49 -30 123 21 297 39 136 82 328 96 430 3 25 8 56 10 70 25 166 25 618 0 734
-2 12 -6 35 -9 51 -24 165 -62 332 -111 479 -44 138 -40 169 33 228 31 26 71
59 87 73 17 15 47 41 69 58 21 18 46 39 55 48 9 8 38 33 66 55 27 21 55 44 61
49 6 6 32 28 59 50 62 51 119 99 125 105 3 3 40 34 84 69 101 82 122 99 165
138 33 30 37 31 49 15 7 -9 53 -98 102 -197z m-6909 90 c73 -60 137 -115 143
-120 6 -6 34 -28 61 -50 28 -22 102 -83 165 -135 131 -110 281 -228 358 -284
126 -91 140 -172 54 -311 -91 -146 -129 -250 -150 -410 -9 -65 -8 -376 1 -485
12 -138 18 -203 22 -235 2 -16 7 -57 10 -90 3 -33 13 -112 20 -175 8 -63 17
-135 19 -160 17 -150 22 -163 86 -251 22 -31 43 -68 46 -83 6 -35 -18 -85 -58
-118 -18 -14 -117 -96 -220 -181 -103 -85 -208 -172 -234 -193 -26 -21 -66
-55 -89 -74 -23 -19 -59 -48 -80 -65 -21 -16 -43 -34 -49 -40 -81 -75 -151
-115 -216 -122 -57 -6 -58 -4 -88 112 -11 44 -56 179 -100 300 -44 121 -90
254 -102 295 -37 124 -99 372 -106 420 -3 25 -8 48 -10 51 -5 9 -41 253 -48
324 -29 293 -24 656 10 890 3 22 8 54 10 70 2 17 11 66 19 110 8 44 17 94 19
111 3 17 20 84 36 150 17 65 33 128 35 140 13 58 113 343 165 469 77 184 115
258 131 253 4 -2 67 -52 140 -113z m1876 -4089 c23 -5 305 -124 568 -241 17
-7 55 -24 85 -38 121 -54 143 -98 186 -372 2 -16 6 -41 9 -55 2 -14 7 -41 9
-60 3 -19 8 -46 10 -60 7 -39 44 -251 51 -287 3 -18 7 -48 10 -65 15 -88 37
-180 60 -251 31 -95 32 -130 4 -158 -18 -18 -30 -20 -73 -16 -164 16 -817 224
-1029 328 -59 29 -301 172 -441 260 -115 73 -420 273 -426 279 -3 3 -30 22
-60 42 -79 52 -267 258 -255 278 3 5 27 16 53 24 26 8 92 30 147 50 781 274
1037 359 1056 350 3 -2 19 -6 36 -8z m3266 -90 c139 -46 385 -130 547 -186
162 -56 316 -109 343 -117 60 -20 97 -54 97 -88 0 -53 -33 -92 -175 -210 -33
-28 -62 -53 -65 -56 -3 -3 -52 -41 -110 -85 -460 -350 -952 -582 -1515 -713
-71 -17 -148 -33 -170 -36 -22 -4 -47 -8 -55 -10 -8 -3 -33 -7 -55 -11 -91
-15 -129 -5 -143 35 -12 34 -12 37 29 265 16 93 32 185 35 205 3 20 7 43 9 51
3 8 7 33 10 55 4 22 8 47 10 55 2 8 6 29 9 45 51 317 89 515 104 544 13 26 36
45 78 67 52 27 107 50 139 60 6 1 97 41 203 88 355 158 331 157 675 42z"/>
</g>
</svg>
